<svg xmlns="http://www.w3.org/2000/svg" viewBox="0 0 32 32" id="Award">
  <path d="M18.16,24l5-18H17.69L16,.64,14.36,6H8.84l5,18H10.07L8.92,32H23.08l-1.15-8ZM21.84,7,20,13.55,18.7,9.28l3-2.28ZM14.73,7a.51.51,0,0,0,.48-.35L16,4l.81,2.63a.5.5,0,0,0,.48.34h2.73L17.54,8.91l.94,3L16,10.07l-2.46,1.87.94-3L12,7Zm3.17,5.75L16,18.82l-1.88-6.05L16,11.32ZM10.16,7h.19l3,2.28L12,13.61Zm2,7.25,1.09-.83L16,22.18l2.76-8.79,1.1.83L17.12,24H14.88ZM10.08,31l.85-6H21.07l.85,6ZM12,30h8V26H12Zm1-3h6v2H13Z" fill="#ffffff" class="color000000 svgShape"></path>
</svg>
