<svg xmlns="http://www.w3.org/2000/svg" viewBox="0 0 24 24" id="MoneyBag">
  <path d="M7.5 14.52A.5.5 0 1 0 8 15a.5.5 0 0 0-.5-.48ZM20 18.73l-.63-.32a.73.73 0 0 1-.41-.65v-1.51a11.62 11.62 0 0 0-2.94-7.73L15.61 8h.89a.5.5 0 0 0 0-1h-1.31l1-2.86a1.65 1.65 0 0 0-2.25-2l-1.63.72a.64.64 0 0 1-.54 0l-1.67-.73a1.65 1.65 0 0 0-2.25 2L8.81 7H7.5a.5.5 0 0 0 0 1h.89l-.45.5A11.62 11.62 0 0 0 5 16.25v1.51a.73.73 0 0 1-.41.65l-.59.32A1.74 1.74 0 0 0 4.74 22h14.52a1.74 1.74 0 0 0 .74-3.27ZM8.8 3.84a.66.66 0 0 1 .2-.69.64.64 0 0 1 .69-.15l1.64.73a1.65 1.65 0 0 0 1.34 0L14.31 3a.64.64 0 0 1 .71.11.66.66 0 0 1 .18.69L14.14 7H9.86ZM19.26 21H4.74a.74.74 0 0 1-.33-1.4l.59-.29a1.73 1.73 0 0 0 1-1.55v-1.51a10.57 10.57 0 0 1 2.69-7.06L9.72 8h4.56l1 1.17A10.57 10.57 0 0 1 18 16.25v1.51a1.73 1.73 0 0 0 1 1.55l.63.31a.74.74 0 0 1-.33 1.4Zm-2.76-6.5a.5.5 0 1 0 .5.5.5.5 0 0 0-.5-.48Zm-1.5-3a.5.5 0 0 0-.5-.5h-5a.5.5 0 0 0 0 1h2a1.51 1.51 0 0 1 1.41 1H9.5a.5.5 0 0 0 0 1h3.41a1.51 1.51 0 0 1-1.41 1h-2a.5.5 0 0 0-.46.31.48.48 0 0 0 .11.54l3 3a.47.47 0 0 0 .35.15h1a.5.5 0 0 0 0-1h-.79l-2-2h.79a2.5 2.5 0 0 0 2.5-2h.55a.5.5 0 0 0 0-1H14a2.54 2.54 0 0 0-.46-1h1a.5.5 0 0 0 .46-.48Z" fill="#ffffff" class="color000000 svgShape"></path>
</svg>
